<svg width="298" height="347" viewBox="0 0 298 347" fill="none" xmlns="http://www.w3.org/2000/svg">
<g clip-path="url(#clip0_13_661)">
<path opacity="0.4" d="M298 341.611C298 344.309 245.527 346.5 180.803 346.5C116.078 346.5 63.6055 344.309 63.6055 341.611C63.6055 338.913 116.078 336.722 180.803 336.722C245.527 336.722 298 338.902 298 341.611Z" fill="#C6A1E2"/>
<path d="M183.041 0.5C176.55 0.5 171.284 5.76581 171.284 12.2568V27.3356H194.81C194.81 27.3356 194.81 15.3668 194.81 12.2568C194.799 5.76581 189.532 0.5 183.041 0.5ZM183.041 19.0069C179.401 19.0069 176.444 16.05 176.444 12.4099C176.444 8.76979 179.401 5.81293 183.041 5.81293C186.681 5.81293 189.638 8.76979 189.638 12.4099C189.638 16.0618 186.681 19.0069 183.041 19.0069Z" fill="#2EBC45"/>
<path d="M189.639 12.4099C189.639 8.76978 186.681 5.81292 183.041 5.81292C182.7 5.81292 182.381 5.86004 182.052 5.90716C183.041 5.53019 183.088 5.27103 184.726 5.27103C188.366 5.27103 191.323 8.22789 191.323 11.868C191.323 15.1783 189.639 16.9571 187.094 17.6168C188.508 16.4034 189.639 14.4243 189.639 12.4099ZM174.865 25.8277V10.7607C174.865 6.67289 176.644 3.06811 179.813 0.959427C174.889 2.36129 171.272 6.88493 171.272 12.2568V27.3356H194.799C194.799 27.3356 194.799 26.7466 194.799 25.8277H174.865Z" fill="#328E32"/>
<path d="M280.175 341.552H81.442C75.1038 341.552 69.9673 336.416 69.9673 330.078V39.5989C69.9673 33.2611 75.1038 28.1249 81.442 28.1249H280.175C286.514 28.1249 291.65 33.2611 291.65 39.5989V330.078C291.65 336.416 286.514 341.552 280.175 341.552Z" fill="#60429B"/>
<path d="M278.797 40.4235H82.8086V329.265H278.797V40.4235Z" fill="#D5B8FF"/>
<path d="M271.269 49.247H90.3484V320.442H271.269V49.247Z" fill="white"/>
<path d="M252.101 33.3082V45.0885H109.492V33.3082C109.492 32.4482 109.622 31.6236 109.869 30.8461C110.918 27.4769 114.063 25.0384 117.763 25.0384H243.831C248.402 25.0384 252.101 28.7374 252.101 33.3082Z" fill="#2EBC45"/>
<path d="M252.101 42.1435V45.0885H109.492V36.5596C109.492 34.2742 109.622 32.3893 109.869 30.8461C110.918 27.4769 114.063 25.0384 117.763 25.0384H118.776C116.596 27.1353 115.006 30.3396 115.006 33.6145V42.1435H252.101Z" fill="#328E32"/>
<g opacity="0.15">
<path d="M140.524 78.0735H169.905" stroke="#560BAD" stroke-width="3.1215" stroke-miterlimit="10" stroke-linecap="round" stroke-linejoin="round"/>
<path d="M235.855 87.4388H258.204" stroke="#560BAD" stroke-width="3.1215" stroke-miterlimit="10" stroke-linecap="round" stroke-linejoin="round"/>
<path d="M140.524 87.4388H226.171" stroke="#560BAD" stroke-width="3.1215" stroke-miterlimit="10" stroke-linecap="round" stroke-linejoin="round"/>
<path d="M140.524 96.8042H258.204" stroke="#560BAD" stroke-width="3.1215" stroke-miterlimit="10" stroke-linecap="round" stroke-linejoin="round"/>
<path d="M220.799 106.181H258.204" stroke="#560BAD" stroke-width="3.1215" stroke-miterlimit="10" stroke-linecap="round" stroke-linejoin="round"/>
<path d="M140.524 106.181H211.481" stroke="#560BAD" stroke-width="3.1215" stroke-miterlimit="10" stroke-linecap="round" stroke-linejoin="round"/>
<path d="M179.554 78.0735H258.204" stroke="#560BAD" stroke-width="3.1215" stroke-miterlimit="10" stroke-linecap="round" stroke-linejoin="round"/>
</g>
<g opacity="0.15">
<path d="M140.524 145.422H169.905" stroke="#560BAD" stroke-width="3.1215" stroke-miterlimit="10" stroke-linecap="round" stroke-linejoin="round"/>
<path d="M235.855 154.787H258.204" stroke="#560BAD" stroke-width="3.1215" stroke-miterlimit="10" stroke-linecap="round" stroke-linejoin="round"/>
<path d="M140.524 154.787H226.171" stroke="#560BAD" stroke-width="3.1215" stroke-miterlimit="10" stroke-linecap="round" stroke-linejoin="round"/>
<path d="M140.524 164.152H258.204" stroke="#560BAD" stroke-width="3.1215" stroke-miterlimit="10" stroke-linecap="round" stroke-linejoin="round"/>
<path d="M220.799 173.529H258.204" stroke="#560BAD" stroke-width="3.1215" stroke-miterlimit="10" stroke-linecap="round" stroke-linejoin="round"/>
<path d="M140.524 173.529H211.481" stroke="#560BAD" stroke-width="3.1215" stroke-miterlimit="10" stroke-linecap="round" stroke-linejoin="round"/>
<path d="M179.554 145.422H258.204" stroke="#560BAD" stroke-width="3.1215" stroke-miterlimit="10" stroke-linecap="round" stroke-linejoin="round"/>
</g>
<g opacity="0.15">
<path d="M140.524 210.414H169.905" stroke="#560BAD" stroke-width="3.1215" stroke-miterlimit="10" stroke-linecap="round" stroke-linejoin="round"/>
<path d="M235.855 219.779H258.204" stroke="#560BAD" stroke-width="3.1215" stroke-miterlimit="10" stroke-linecap="round" stroke-linejoin="round"/>
<path d="M140.524 219.779H226.171" stroke="#560BAD" stroke-width="3.1215" stroke-miterlimit="10" stroke-linecap="round" stroke-linejoin="round"/>
<path d="M140.524 229.144H258.204" stroke="#560BAD" stroke-width="3.1215" stroke-miterlimit="10" stroke-linecap="round" stroke-linejoin="round"/>
<path d="M220.799 238.522H258.204" stroke="#560BAD" stroke-width="3.1215" stroke-miterlimit="10" stroke-linecap="round" stroke-linejoin="round"/>
<path d="M140.524 238.522H211.481" stroke="#560BAD" stroke-width="3.1215" stroke-miterlimit="10" stroke-linecap="round" stroke-linejoin="round"/>
<path d="M179.554 210.414H258.204" stroke="#560BAD" stroke-width="3.1215" stroke-miterlimit="10" stroke-linecap="round" stroke-linejoin="round"/>
</g>
<g opacity="0.15">
<path d="M140.524 276.584H169.905" stroke="#560BAD" stroke-width="3.1215" stroke-miterlimit="10" stroke-linecap="round" stroke-linejoin="round"/>
<path d="M235.855 285.949H258.204" stroke="#560BAD" stroke-width="3.1215" stroke-miterlimit="10" stroke-linecap="round" stroke-linejoin="round"/>
<path d="M140.524 285.949H226.171" stroke="#560BAD" stroke-width="3.1215" stroke-miterlimit="10" stroke-linecap="round" stroke-linejoin="round"/>
<path d="M140.524 295.314H258.204" stroke="#560BAD" stroke-width="3.1215" stroke-miterlimit="10" stroke-linecap="round" stroke-linejoin="round"/>
<path d="M220.799 304.692H258.204" stroke="#560BAD" stroke-width="3.1215" stroke-miterlimit="10" stroke-linecap="round" stroke-linejoin="round"/>
<path d="M140.524 304.692H211.481" stroke="#560BAD" stroke-width="3.1215" stroke-miterlimit="10" stroke-linecap="round" stroke-linejoin="round"/>
<path d="M179.554 276.584H258.204" stroke="#560BAD" stroke-width="3.1215" stroke-miterlimit="10" stroke-linecap="round" stroke-linejoin="round"/>
</g>
<path d="M128.118 102.188H106.135C104.768 102.188 103.661 101.08 103.661 99.7139V77.7201C103.661 76.3535 104.768 75.2462 106.135 75.2462H128.118C129.485 75.2462 130.592 76.3535 130.592 77.7201V99.7021C130.592 101.08 129.485 102.188 128.118 102.188Z" stroke="#7024B2" stroke-width="1.1566" stroke-miterlimit="10"/>
<path d="M128.118 169.312H106.135C104.768 169.312 103.661 168.205 103.661 166.838V144.856C103.661 143.49 104.768 142.382 106.135 142.382H128.118C129.485 142.382 130.592 143.49 130.592 144.856V166.838C130.592 168.205 129.485 169.312 128.118 169.312Z" stroke="#7024B2" stroke-width="1.1566" stroke-miterlimit="10"/>
<path d="M128.118 236.448H106.135C104.768 236.448 103.661 235.341 103.661 233.974V211.992C103.661 210.626 104.768 209.518 106.135 209.518H128.118C129.485 209.518 130.592 210.626 130.592 211.992V233.974C130.592 235.329 129.485 236.448 128.118 236.448Z" stroke="#7024B2" stroke-width="1.1566" stroke-miterlimit="10"/>
<path d="M128.118 303.572H106.135C104.768 303.572 103.661 302.465 103.661 301.099V279.105C103.661 277.738 104.768 276.631 106.135 276.631H128.118C129.485 276.631 130.592 277.738 130.592 279.105V301.087C130.592 302.465 129.485 303.572 128.118 303.572Z" stroke="#7024B2" stroke-width="1.1566" stroke-miterlimit="10"/>
<path d="M106.971 83.9754L117.127 96.2387L136.66 65.4096" stroke="#32FF2C" stroke-width="3.4699" stroke-miterlimit="10" stroke-linecap="round" stroke-linejoin="round"/>
<path d="M106.971 150.546L117.127 162.809L136.66 131.98" stroke="#32FF2C" stroke-width="3.4699" stroke-miterlimit="10" stroke-linecap="round" stroke-linejoin="round"/>
<path d="M32.0913 170.09C32.0913 170.09 32.5979 173.447 32.916 173.741C32.916 173.741 32.5979 174.307 31.6318 174.354" fill="#FFB392"/>
<path opacity="0.4" d="M57.291 341.87C57.291 343.272 44.7089 344.403 29.1934 344.403C13.6778 344.403 1.0957 343.272 1.0957 341.87C1.0957 340.468 13.6778 339.338 29.1934 339.338C44.7089 339.338 57.291 340.48 57.291 341.87Z" fill="#A1D7E5"/>
<path d="M42.0228 185.781L35.8142 213.064C35.6493 213.806 36.1441 214.537 36.8981 214.643L56.2307 217.423C56.9022 217.517 57.5384 217.081 57.6915 216.422L63.9001 189.138C64.065 188.396 63.5702 187.666 62.8162 187.56L43.4836 184.78C42.8121 184.685 42.176 185.121 42.0228 185.781Z" fill="#A259EF"/>
<path d="M43.2363 186.665L37.2869 212.782L56.4781 215.538L62.4275 189.421L43.2363 186.665Z" fill="#E5F8FF"/>
<path d="M60.3894 191.341L44.0845 189.009" stroke="#BAA3EF" stroke-width="0.5742" stroke-miterlimit="10" stroke-linecap="round" stroke-linejoin="round"/>
<path d="M59.8474 193.815L43.5308 191.471" stroke="#BAA3EF" stroke-width="0.5742" stroke-miterlimit="10" stroke-linecap="round" stroke-linejoin="round"/>
<path d="M53.0497 195.865L42.8591 194.392" stroke="#BAA3EF" stroke-width="0.5742" stroke-miterlimit="10" stroke-linecap="round" stroke-linejoin="round"/>
<path d="M52.3312 197.985L42.1289 196.513" stroke="#BAA3EF" stroke-width="0.5742" stroke-miterlimit="10" stroke-linecap="round" stroke-linejoin="round"/>
<path d="M51.6007 200.106L41.4102 198.645" stroke="#BAA3EF" stroke-width="0.5742" stroke-miterlimit="10" stroke-linecap="round" stroke-linejoin="round"/>
<path d="M55.3353 211.827L45.1448 210.367" stroke="#BAA3EF" stroke-width="0.5742" stroke-miterlimit="10" stroke-linecap="round" stroke-linejoin="round"/>
<path d="M34.5773 213.394C35.6729 212.876 36.4858 211.922 37.2634 211.003C38.0291 210.084 38.7949 209.177 39.5724 208.258C39.8787 207.893 40.1968 207.504 40.2322 207.033C38.948 206.927 38.1116 208.599 36.8275 208.694C37.4283 206.573 38.2883 204.523 39.3839 202.615C39.6549 202.144 39.9376 201.602 39.7491 201.107C38.359 201.637 37.1809 202.627 36.1677 203.722C35.4609 204.488 34.8011 205.313 34.2239 206.185C32.5274 208.753 31.4671 211.709 30.7603 214.702" fill="#F2A181"/>
<path d="M29.0401 235.364L15.2328 223.725C15.2328 223.725 8.81219 232.443 11.2273 240.842C12.4172 244.977 13.9134 247.027 14.5613 248.982C15.1621 250.82 19.3208 276.749 19.0145 278.645C18.7082 280.542 16.4698 285.843 15.6216 291.427C14.5967 298.142 14.7734 319.994 13.9723 325.79C13.1829 331.586 18.5315 332.564 18.826 330.608C21.3472 313.845 27.9916 287.728 28.9223 279.352C29.853 270.965 29.476 255.615 29.0401 235.364Z" fill="#FFBE9D"/>
<path d="M29.0872 251.88L23.0789 265.652C25.6118 269.928 27.0726 274.97 27.2611 280.083C27.3671 282.745 27.1315 285.407 27.2022 288.058C27.2022 288.246 27.2375 288.447 27.2847 288.635C28.0858 284.7 28.6866 281.449 28.9222 279.329C29.582 273.403 29.582 264.002 29.3699 251.845C29.2757 251.869 29.1814 251.857 29.0872 251.88Z" fill="#F2A181"/>
<path d="M19.7684 325.213C19.7684 325.213 18.4843 331.292 18.8259 332.069C19.1676 332.847 20.4163 335.097 21.6887 335.91C23.0199 336.769 25.9887 337.783 26.2244 338.148C26.46 338.513 26.4718 339.055 26.0594 339.385C24.9638 340.245 23.0788 340.657 21.8418 340.457C17.8245 339.797 17.4122 338.018 15.0796 337.735C14.679 337.688 13.925 338.277 12.8176 337.712C11.6984 337.146 11.1565 336.11 11.2507 335.132C11.4157 333.459 12.3581 332.081 13.0297 330.832C13.7012 329.595 14.1724 323.929 14.1724 323.929" fill="#FFBE9D"/>
<path d="M26.3658 339.691C26.6603 339.184 26.731 338.43 26.46 338.254C26.083 337.995 24.74 337.111 23.9624 336.746C23.1849 336.392 21.9479 336.074 22.3838 336.31C22.8197 336.546 22.0186 337.417 21.2881 337.382C18.7788 337.229 16.9174 335.556 15.4801 335.203C13.4067 334.684 12.5467 332.246 12.4524 331.845C12.0636 332.093 11.1565 334.06 10.968 334.673C10.8031 335.226 10.5086 336.251 10.6617 336.84C10.7677 337.241 11.0151 338.054 10.8855 338.902C10.8855 338.902 11.2979 339.22 12.3699 339.444C13.0532 339.585 13.9722 339.467 13.9722 339.467L14.1489 338.171C14.1489 338.171 14.7144 338.148 15.433 338.301C16.1516 338.454 17.318 339.126 17.3886 339.208C17.6714 339.55 17.907 340.174 18.284 340.362C19.2854 340.869 20.2985 341.116 21.5827 341.187C24.2923 341.328 25.8592 340.551 26.3658 339.691Z" fill="#1B227A"/>
<path d="M47.8897 339.444C47.5952 339.114 44.3908 338.595 42.8946 337.971C41.4691 337.37 39.7373 335.45 39.3956 334.637C39.054 333.824 39.1365 329.701 39.1836 327.958C39.4781 316.024 41.6929 286.856 42.011 279.87C42.5647 267.725 40.9861 255.202 36.3208 235.706L18.9321 222.359C18.9321 222.359 14.0665 231.418 15.6923 240.076C16.6348 245.095 20.8053 245.872 21.5121 247.828C22.219 249.783 32.7394 281.261 32.7394 281.261C32.7394 281.261 30.6895 288.07 30.5717 295.515C30.4657 301.876 33.352 321.078 33.8939 328.394C33.9528 329.819 34.2002 333.247 33.7761 334.331C33.2578 335.662 31.9501 337.229 32.009 338.913C32.0443 339.891 32.7512 340.822 33.9882 341.199C35.2252 341.576 35.9085 340.869 36.3326 340.857C38.783 340.751 39.4663 342.448 43.6957 342.436C45.0034 342.436 46.9001 341.717 47.9015 340.692C48.2785 340.304 48.1843 339.773 47.8897 339.444Z" fill="#FFBE9D"/>
<path d="M48.255 340.94C48.4906 340.398 48.4553 339.632 48.149 339.502C47.7249 339.314 46.2169 338.654 45.3569 338.43C44.5087 338.207 43.1892 338.089 43.6722 338.254C44.1552 338.419 43.4484 339.408 42.6944 339.491C40.079 339.75 37.9231 338.395 36.4033 338.277C34.2003 338.101 33.3874 335.839 33.2343 335.462C32.869 335.768 31.7734 337.865 31.6674 338.501C31.5731 339.078 31.4082 340.139 31.6556 340.692C31.8205 341.069 32.1857 341.835 32.1857 342.695C32.1857 342.695 32.6452 342.942 33.7997 342.978C34.5302 343.001 35.4491 342.742 35.4491 342.742V341.434C35.4491 341.434 36.0263 341.317 36.7921 341.352C37.5461 341.376 38.4886 341.764 38.948 342.118C39.3132 342.389 39.6902 342.848 40.1143 342.954C41.3396 343.26 42.2231 343.355 43.5544 343.213C46.3465 342.895 47.8545 341.859 48.255 340.94Z" fill="#1B227A"/>
<path d="M15.5979 222.253C14.4198 223.549 10.214 230.558 10.1669 236.26C10.1198 241.961 11.9458 245.672 12.3346 246.815C13.4067 249.937 15.4094 252.717 15.4094 253.294C15.4094 253.859 18.5432 254.26 25.1994 253.836C37.4988 253.058 42.0109 250.749 42.0109 250.749C42.0109 250.749 42.4115 245.637 41.1509 234.54C40.5501 229.274 36.0615 220.922 36.0615 220.922" fill="#60429B"/>
<path d="M4.38257 199.458C4.38257 199.458 6.36177 209.295 6.88014 211.05C7.3985 212.805 9.96675 223.914 12.4054 223.725C14.8441 223.537 28.1802 212.405 28.1802 212.405L26.2952 208.623L14.5613 214.219C14.5613 214.219 13.501 201.508 12.5704 198.48" fill="#FFBE9D"/>
<path d="M8.92993 205.513C10.1669 209.907 12.7234 214.537 13.4774 217.941C13.6305 218.625 21.7594 215.668 21.7712 212.617" fill="#F2A181"/>
<path d="M12.3348 185.816C12.3348 185.816 8.44706 186.229 6.46786 187.737C1.43738 191.589 5.3251 205.56 5.3251 205.56C5.3251 205.56 5.0777 206.302 8.45885 206.114C11.84 205.925 14.5496 204.959 14.5496 204.959L13.5718 193.509" fill="#2EBC45"/>
<path d="M7.88152 193.733C7.88152 193.733 7.45741 201.944 8.94181 206.09C10.4144 206.067 11.6986 205.725 11.6986 205.725L7.88152 193.733Z" fill="#328E32"/>
<path d="M30.9369 160.029C33.2813 163.069 32.8219 167.345 32.2446 171.138C31.9501 173.058 31.6555 174.978 31.3728 176.899C31.2314 177.806 31.0547 178.807 30.3361 179.396C29.6174 179.985 28.5925 179.985 27.6618 179.938C27.6736 181.528 27.6854 183.119 27.6854 184.709C24.9639 184.78 22.2543 184.791 19.5329 184.744C19.5329 183.637 19.2855 182.518 18.8261 181.505C17.4948 181.481 16.6112 180.15 16.0929 178.925C15.492 177.511 15.0561 176.039 14.632 174.566C14.0665 172.611 13.5364 170.62 13.4775 168.582C13.4304 166.544 13.9134 164.435 15.1975 162.856C16.0811 161.784 17.2827 161.019 18.508 160.383C20.1926 159.499 22.219 158.804 23.9626 159.582" fill="#FFBE9D"/>
<path d="M28.1329 174.519C27.8148 172.917 27.8384 172.022 28.3567 170.961C28.5335 170.608 28.7573 170.278 29.0754 170.054C29.4995 169.76 30.065 169.701 30.5244 169.901C30.8307 170.031 31.0781 170.278 31.2549 170.584C31.8086 168.44 31.9264 166.155 31.7614 163.928C31.5023 160.394 29.3817 157.661 26.2715 156.389C20.5106 154.021 12.2404 156.366 9.90772 162.008C8.14057 166.273 9.03592 172.434 12.4171 176.015C15.4094 179.184 19.7213 179.643 23.6915 178.996C25.7296 178.666 28.8633 178.866 29.9118 176.098C29.9943 175.886 29.8058 175.673 29.5937 175.685C28.7573 175.744 28.1918 174.814 28.1329 174.519Z" fill="#60429B"/>
<path d="M28.569 167.003C28.781 167.333 28.7339 167.792 28.9342 168.134C29.2758 168.711 29.7235 168.923 30.3243 169.194C31.3021 169.642 31.0783 171.067 31.043 171.704C31.7852 171.209 31.903 169.878 32.0797 169.206C32.28 168.44 32.4096 167.663 32.6334 166.909C32.8455 166.179 33.2224 165.483 33.2931 164.706C33.5288 162.032 31.8559 158.898 29.8295 157.402C28.3569 156.307 26.1067 156.354 24.4456 157.461C23.7505 157.932 23.2204 158.639 22.9023 159.417C22.7727 159.758 22.6785 160.147 22.8434 160.465" fill="#60429B"/>
<path d="M15.4802 185.852C15.6216 184.921 15.869 183.837 16.7408 183.472C16.9764 183.366 17.2474 183.342 17.5066 183.307C20.1573 183.013 22.8316 182.883 25.4941 182.93C26.6015 182.942 27.7442 183.001 28.722 183.496C30.2654 184.273 31.1254 185.934 31.8676 187.501" fill="#328E32"/>
<path d="M37.9466 219.967C37.5814 219.414 36.7214 218.766 36.4151 218.165C35.6729 216.716 35.0367 210.614 35.2841 209.059C35.5551 207.386 37.0395 206.491 37.6992 202.78C38.5592 197.997 36.5918 194.275 35.4962 192.672C33.9411 190.422 34.86 190.434 34.3299 187.666C34.2356 187.171 34.1178 186.641 33.7762 186.288C33.4463 185.946 31.1254 184.886 30.6778 184.815C26.3659 184.144 23.833 184.674 19.474 184.862C17.3181 184.956 15.1622 185.204 13.0416 185.675C10.6972 186.193 8.6591 186.818 8.17608 189.998C7.43387 194.911 8.05827 199.894 9.55445 204.547C10.5441 207.633 16.4581 218.33 14.9973 220.403C14.6674 220.875 13.8192 221.77 13.7249 222.371C13.3597 224.526 18.237 225.292 20.3341 225.469C23.5149 225.728 27.1788 225.551 30.3715 225.41C32.7866 225.292 38.0762 224.456 38.4532 221.464C38.5357 220.863 38.2411 220.392 37.9466 219.967Z" fill="#2EBC45"/>
<path d="M37.0276 203.699C37.0276 204.571 36.5446 205.737 36.3797 206.196C35.7671 206.503 33.3637 207.021 31.9854 206.397C31.6791 203.522 29.9944 197.997 29.9944 197.997C29.9944 197.997 37.0276 202.886 37.0276 203.699Z" fill="#328E32"/>
<path d="M33.9409 201.684C33.9409 201.684 41.9049 220.933 45.3567 220.933C47.866 220.933 54.0393 203.169 54.0393 203.169L50.1398 201.331L45.7926 208.776L41.3983 194.899" fill="#FFBE9D"/>
<path d="M49.374 202.65C49.374 202.65 50.6699 200.612 50.5757 199.175C50.5403 198.622 50.2105 196.006 50.4814 195.5C50.7524 194.981 51.4121 193.297 51.7891 192.979C52.1661 192.649 53.5445 192.131 53.8861 192.354C54.2278 192.59 54.6401 191.518 55.2056 191.6C55.7711 191.695 56.2306 192.166 56.2306 192.672C56.2306 193.191 56.9845 193.285 57.067 193.65C57.1495 194.015 57.1141 194.357 57.2555 194.628C57.3969 194.911 57.8092 194.769 57.9624 195.464C58.092 196.101 57.9152 196.171 57.9624 196.489C58.0095 196.819 58.2922 196.784 58.198 197.408C58.1037 198.033 57.6796 198.845 57.3026 199.54C56.9256 200.247 56.1599 201.119 55.1349 201.743C54.6283 202.05 54.3456 202.58 53.8626 203.487" fill="#FFBE9D"/>
<path d="M51.5064 187.772C51.4121 187.619 51.1412 187.36 50.8231 187.583C50.505 187.807 50.5992 188.196 50.6699 188.349C50.7406 188.502 53.0261 193.674 53.0261 193.674C53.0261 193.674 53.2146 193.898 53.5798 193.568C53.9804 193.214 53.8508 193.049 53.8508 193.049C53.8508 193.049 51.6124 187.925 51.5064 187.772Z" fill="#1B227A"/>
<path d="M53.9922 192.72C53.5445 193.521 53.0261 193.78 52.5549 194.216C52.1897 194.557 52.2368 194.781 51.8245 195.135C52.5313 195.087 52.4135 194.663 53.3324 194.004C53.7565 193.697 54.1924 193.368 54.2867 192.837C54.3103 192.661 54.0982 192.566 53.9922 192.72Z" fill="#F2A181"/>
<path d="M26.6133 184.521C28.6867 184.627 34.7304 183.566 38.088 187.077C40.9036 190.022 42.5058 197.726 43.6368 200.848C40.8211 203.722 38.1115 206.031 33.835 205.101C33.6701 204.983 31.5613 198.315 30.018 197.726" fill="#2EBC45"/>
<path d="M42.0346 245.649C42.0346 245.649 43.4012 278.575 43.1538 280.978C42.9064 283.381 40.2322 328.841 40.2322 328.841C40.2322 328.841 34.7422 329.807 31.4553 328.841C31.4553 328.841 27.2142 293.43 31.4553 282.403L29.5704 271.836C29.5704 271.836 29.8531 279.706 29.5704 281.296C29.2876 282.898 20.8053 327.722 20.8053 327.722C20.8053 327.722 15.1976 327.569 12.6293 325.331C12.6293 325.331 11.8282 294.184 17.6716 281.084L12.323 246.815L15.3978 238.097L42.0346 245.649Z" fill="#60429B"/>
<path d="M29.5702 271.836C28.7926 266.771 23.9506 248.806 23.7504 248.37C21.1114 246.32 18.6963 244.518 17.8127 242.81C19.2618 247.145 22.0303 247.369 23.0788 249.607C25.6471 255.144 23.6797 253.918 29.688 272.461" fill="#170D54"/>
<path d="M5.97296 184.308C5.84337 186.064 6.20858 187.807 6.23214 189.562C6.2557 191.318 5.87871 193.214 4.59458 194.404C3.29868 195.594 0.907136 195.641 0 194.145C0.930698 196.077 2.92168 197.385 5.04226 197.773C7.15106 198.162 9.3541 197.703 11.3097 196.807C16.4934 194.428 19.957 188.997 19.7921 183.272C19.6625 178.571 16.0928 174.024 11.0977 176.498C8.176 177.947 6.20858 181.081 5.97296 184.308Z" fill="#60429B"/>
</g>
<defs>
<clipPath id="clip0_13_661">
<rect width="298" height="346" fill="white" transform="translate(0 0.5)"/>
</clipPath>
</defs>
</svg>
