<svg width="131" height="131" viewBox="0 0 131 131" fill="none" xmlns="http://www.w3.org/2000/svg">
<rect width="131" height="131" rx="65.5" fill="#C0ACE0"/>
<path d="M62.3799 35.68L45.8799 41.86C42.7299 43.06 40.1499 46.78 40.1499 50.17V74.47C40.1499 76.9 41.7399 80.11 43.6899 81.55L60.1899 93.88C63.0999 96.07 67.8699 96.07 70.7799 93.88L87.2799 81.55C89.2299 80.08 90.8199 76.9 90.8199 74.47V50.17C90.8199 46.81 88.2399 43.06 85.0899 41.89L68.5899 35.71C66.9099 35.05 64.0899 35.05 62.3799 35.68Z" fill="white"/>
<path d="M61.4797 72.19C60.9097 72.19 60.3397 71.98 59.8897 71.53L55.0597 66.7C54.1897 65.83 54.1897 64.39 55.0597 63.52C55.9297 62.65 57.3697 62.65 58.2397 63.52L61.4797 66.76L72.7897 55.45C73.6597 54.58 75.0997 54.58 75.9697 55.45C76.8397 56.32 76.8397 57.76 75.9697 58.63L63.0697 71.53C62.6197 71.98 62.0497 72.19 61.4797 72.19Z" fill="#39A977"/>
</svg>
